<?xml version="1.0" standalone="no"?>
<svg xmlns:xlink="http://www.w3.org/1999/xlink" id="wave" style="transform:rotate(0deg); transition: 0.3s" viewBox="0 0 1440 180" version="1.1" xmlns="http://www.w3.org/2000/svg"><defs><linearGradient id="sw-gradient-0" x1="0" x2="0" y1="1" y2="0"><stop stop-color="rgba(255, 255, 255, 1)" offset="0%"/><stop stop-color="rgba(242, 242, 242, 1)" offset="100%"/></linearGradient></defs><path style="transform:translate(0, 0px); opacity:1" fill="url(#sw-gradient-0)" d="M0,18L80,42C160,66,320,114,480,114C640,114,800,66,960,66C1120,66,1280,114,1440,129C1600,144,1760,126,1920,105C2080,84,2240,60,2400,57C2560,54,2720,72,2880,75C3040,78,3200,66,3360,75C3520,84,3680,114,3840,129C4000,144,4160,144,4320,120C4480,96,4640,48,4800,30C4960,12,5120,24,5280,48C5440,72,5600,108,5760,123C5920,138,6080,132,6240,123C6400,114,6560,102,6720,81C6880,60,7040,30,7200,27C7360,24,7520,48,7680,66C7840,84,8000,96,8160,87C8320,78,8480,48,8640,48C8800,48,8960,78,9120,93C9280,108,9440,108,9600,102C9760,96,9920,84,10080,75C10240,66,10400,60,10560,66C10720,72,10880,90,11040,87C11200,84,11360,60,11440,48L11520,36L11520,180L11440,180C11360,180,11200,180,11040,180C10880,180,10720,180,10560,180C10400,180,10240,180,10080,180C9920,180,9760,180,9600,180C9440,180,9280,180,9120,180C8960,180,8800,180,8640,180C8480,180,8320,180,8160,180C8000,180,7840,180,7680,180C7520,180,7360,180,7200,180C7040,180,6880,180,6720,180C6560,180,6400,180,6240,180C6080,180,5920,180,5760,180C5600,180,5440,180,5280,180C5120,180,4960,180,4800,180C4640,180,4480,180,4320,180C4160,180,4000,180,3840,180C3680,180,3520,180,3360,180C3200,180,3040,180,2880,180C2720,180,2560,180,2400,180C2240,180,2080,180,1920,180C1760,180,1600,180,1440,180C1280,180,1120,180,960,180C800,180,640,180,480,180C320,180,160,180,80,180L0,180Z"/><defs><linearGradient id="sw-gradient-1" x1="0" x2="0" y1="1" y2="0"><stop stop-color="rgba(255, 255, 255, 1)" offset="0%"/><stop stop-color="rgba(242, 242, 242, 1)" offset="100%"/></linearGradient></defs><path style="transform:translate(0, 50px); opacity:0.9" fill="url(#sw-gradient-1)" d="M0,126L80,105C160,84,320,42,480,48C640,54,800,108,960,135C1120,162,1280,162,1440,150C1600,138,1760,114,1920,90C2080,66,2240,42,2400,36C2560,30,2720,42,2880,60C3040,78,3200,102,3360,111C3520,120,3680,114,3840,93C4000,72,4160,36,4320,30C4480,24,4640,48,4800,75C4960,102,5120,132,5280,126C5440,120,5600,78,5760,63C5920,48,6080,60,6240,72C6400,84,6560,96,6720,99C6880,102,7040,96,7200,90C7360,84,7520,78,7680,66C7840,54,8000,36,8160,27C8320,18,8480,18,8640,42C8800,66,8960,114,9120,117C9280,120,9440,78,9600,54C9760,30,9920,24,10080,30C10240,36,10400,54,10560,60C10720,66,10880,60,11040,72C11200,84,11360,114,11440,129L11520,144L11520,180L11440,180C11360,180,11200,180,11040,180C10880,180,10720,180,10560,180C10400,180,10240,180,10080,180C9920,180,9760,180,9600,180C9440,180,9280,180,9120,180C8960,180,8800,180,8640,180C8480,180,8320,180,8160,180C8000,180,7840,180,7680,180C7520,180,7360,180,7200,180C7040,180,6880,180,6720,180C6560,180,6400,180,6240,180C6080,180,5920,180,5760,180C5600,180,5440,180,5280,180C5120,180,4960,180,4800,180C4640,180,4480,180,4320,180C4160,180,4000,180,3840,180C3680,180,3520,180,3360,180C3200,180,3040,180,2880,180C2720,180,2560,180,2400,180C2240,180,2080,180,1920,180C1760,180,1600,180,1440,180C1280,180,1120,180,960,180C800,180,640,180,480,180C320,180,160,180,80,180L0,180Z"/><defs><linearGradient id="sw-gradient-2" x1="0" x2="0" y1="1" y2="0"><stop stop-color="rgba(255, 255, 255, 1)" offset="0%"/><stop stop-color="rgba(242, 242, 242, 1)" offset="100%"/></linearGradient></defs><path style="transform:translate(0, 100px); opacity:0.8" fill="url(#sw-gradient-2)" d="M0,144L80,135C160,126,320,108,480,102C640,96,800,102,960,90C1120,78,1280,48,1440,45C1600,42,1760,66,1920,66C2080,66,2240,42,2400,39C2560,36,2720,54,2880,63C3040,72,3200,72,3360,81C3520,90,3680,108,3840,102C4000,96,4160,66,4320,54C4480,42,4640,48,4800,57C4960,66,5120,78,5280,72C5440,66,5600,42,5760,27C5920,12,6080,6,6240,21C6400,36,6560,72,6720,90C6880,108,7040,108,7200,90C7360,72,7520,36,7680,45C7840,54,8000,108,8160,135C8320,162,8480,162,8640,141C8800,120,8960,78,9120,72C9280,66,9440,96,9600,114C9760,132,9920,138,10080,120C10240,102,10400,60,10560,42C10720,24,10880,30,11040,36C11200,42,11360,48,11440,51L11520,54L11520,180L11440,180C11360,180,11200,180,11040,180C10880,180,10720,180,10560,180C10400,180,10240,180,10080,180C9920,180,9760,180,9600,180C9440,180,9280,180,9120,180C8960,180,8800,180,8640,180C8480,180,8320,180,8160,180C8000,180,7840,180,7680,180C7520,180,7360,180,7200,180C7040,180,6880,180,6720,180C6560,180,6400,180,6240,180C6080,180,5920,180,5760,180C5600,180,5440,180,5280,180C5120,180,4960,180,4800,180C4640,180,4480,180,4320,180C4160,180,4000,180,3840,180C3680,180,3520,180,3360,180C3200,180,3040,180,2880,180C2720,180,2560,180,2400,180C2240,180,2080,180,1920,180C1760,180,1600,180,1440,180C1280,180,1120,180,960,180C800,180,640,180,480,180C320,180,160,180,80,180L0,180Z"/></svg>