<?xml version="1.0" standalone="no"?>
<svg xmlns:xlink="http://www.w3.org/1999/xlink" id="wave" style="transform:rotate(180deg); transition: 0.3s" viewBox="0 0 1440 490" version="1.1" xmlns="http://www.w3.org/2000/svg"><defs><linearGradient id="sw-gradient-0" x1="0" x2="0" y1="1" y2="0"><stop stop-color="rgba(38, 63, 244, 1)" offset="0%"/><stop stop-color="rgba(149, 165, 255, 1)" offset="100%"/></linearGradient></defs><path style="transform:translate(0, 0px); opacity:1" fill="url(#sw-gradient-0)" d="M0,49L17.1,89.8C34.3,131,69,212,103,253.2C137.1,294,171,294,206,261.3C240,229,274,163,309,147C342.9,131,377,163,411,155.2C445.7,147,480,98,514,122.5C548.6,147,583,245,617,277.7C651.4,310,686,278,720,285.8C754.3,294,789,343,823,318.5C857.1,294,891,196,926,155.2C960,114,994,131,1029,122.5C1062.9,114,1097,82,1131,89.8C1165.7,98,1200,147,1234,138.8C1268.6,131,1303,65,1337,40.8C1371.4,16,1406,33,1440,81.7C1474.3,131,1509,212,1543,269.5C1577.1,327,1611,359,1646,359.3C1680,359,1714,327,1749,326.7C1782.9,327,1817,359,1851,383.8C1885.7,408,1920,425,1954,392C1988.6,359,2023,278,2057,236.8C2091.4,196,2126,196,2160,204.2C2194.3,212,2229,229,2263,228.7C2297.1,229,2331,212,2366,204.2C2400,196,2434,196,2451,196L2468.6,196L2468.6,490L2451.4,490C2434.3,490,2400,490,2366,490C2331.4,490,2297,490,2263,490C2228.6,490,2194,490,2160,490C2125.7,490,2091,490,2057,490C2022.9,490,1989,490,1954,490C1920,490,1886,490,1851,490C1817.1,490,1783,490,1749,490C1714.3,490,1680,490,1646,490C1611.4,490,1577,490,1543,490C1508.6,490,1474,490,1440,490C1405.7,490,1371,490,1337,490C1302.9,490,1269,490,1234,490C1200,490,1166,490,1131,490C1097.1,490,1063,490,1029,490C994.3,490,960,490,926,490C891.4,490,857,490,823,490C788.6,490,754,490,720,490C685.7,490,651,490,617,490C582.9,490,549,490,514,490C480,490,446,490,411,490C377.1,490,343,490,309,490C274.3,490,240,490,206,490C171.4,490,137,490,103,490C68.6,490,34,490,17,490L0,490Z"/></svg>