<?xml version="1.0" standalone="no"?>
<svg xmlns:xlink="http://www.w3.org/1999/xlink" id="wave" style="transform:rotate(0deg); transition: 0.3s" viewBox="0 0 1440 290" version="1.1" xmlns="http://www.w3.org/2000/svg"><defs><linearGradient id="sw-gradient-0" x1="0" x2="0" y1="1" y2="0"><stop stop-color="rgba(255, 255, 255, 1)" offset="0%"/><stop stop-color="rgba(242, 242, 242, 1)" offset="100%"/></linearGradient></defs><path style="transform:translate(0, 0px); opacity:1" fill="url(#sw-gradient-0)" d="M0,29L80,67.7C160,106,320,184,480,183.7C640,184,800,106,960,106.3C1120,106,1280,184,1440,207.8C1600,232,1760,203,1920,169.2C2080,135,2240,97,2400,91.8C2560,87,2720,116,2880,120.8C3040,126,3200,106,3360,120.8C3520,135,3680,184,3840,207.8C4000,232,4160,232,4320,193.3C4480,155,4640,77,4800,48.3C4960,19,5120,39,5280,77.3C5440,116,5600,174,5760,198.2C5920,222,6080,213,6240,198.2C6400,184,6560,164,6720,130.5C6880,97,7040,48,7200,43.5C7360,39,7520,77,7680,106.3C7840,135,8000,155,8160,140.2C8320,126,8480,77,8640,77.3C8800,77,8960,126,9120,149.8C9280,174,9440,174,9600,164.3C9760,155,9920,135,10080,120.8C10240,106,10400,97,10560,106.3C10720,116,10880,145,11040,140.2C11200,135,11360,97,11440,77.3L11520,58L11520,290L11440,290C11360,290,11200,290,11040,290C10880,290,10720,290,10560,290C10400,290,10240,290,10080,290C9920,290,9760,290,9600,290C9440,290,9280,290,9120,290C8960,290,8800,290,8640,290C8480,290,8320,290,8160,290C8000,290,7840,290,7680,290C7520,290,7360,290,7200,290C7040,290,6880,290,6720,290C6560,290,6400,290,6240,290C6080,290,5920,290,5760,290C5600,290,5440,290,5280,290C5120,290,4960,290,4800,290C4640,290,4480,290,4320,290C4160,290,4000,290,3840,290C3680,290,3520,290,3360,290C3200,290,3040,290,2880,290C2720,290,2560,290,2400,290C2240,290,2080,290,1920,290C1760,290,1600,290,1440,290C1280,290,1120,290,960,290C800,290,640,290,480,290C320,290,160,290,80,290L0,290Z"/><defs><linearGradient id="sw-gradient-1" x1="0" x2="0" y1="1" y2="0"><stop stop-color="rgba(255, 255, 255, 1)" offset="0%"/><stop stop-color="rgba(242, 242, 242, 1)" offset="100%"/></linearGradient></defs><path style="transform:translate(0, 50px); opacity:0.9" fill="url(#sw-gradient-1)" d="M0,203L80,169.2C160,135,320,68,480,77.3C640,87,800,174,960,217.5C1120,261,1280,261,1440,241.7C1600,222,1760,184,1920,145C2080,106,2240,68,2400,58C2560,48,2720,68,2880,96.7C3040,126,3200,164,3360,178.8C3520,193,3680,184,3840,149.8C4000,116,4160,58,4320,48.3C4480,39,4640,77,4800,120.8C4960,164,5120,213,5280,203C5440,193,5600,126,5760,101.5C5920,77,6080,97,6240,116C6400,135,6560,155,6720,159.5C6880,164,7040,155,7200,145C7360,135,7520,126,7680,106.3C7840,87,8000,58,8160,43.5C8320,29,8480,29,8640,67.7C8800,106,8960,184,9120,188.5C9280,193,9440,126,9600,87C9760,48,9920,39,10080,48.3C10240,58,10400,87,10560,96.7C10720,106,10880,97,11040,116C11200,135,11360,184,11440,207.8L11520,232L11520,290L11440,290C11360,290,11200,290,11040,290C10880,290,10720,290,10560,290C10400,290,10240,290,10080,290C9920,290,9760,290,9600,290C9440,290,9280,290,9120,290C8960,290,8800,290,8640,290C8480,290,8320,290,8160,290C8000,290,7840,290,7680,290C7520,290,7360,290,7200,290C7040,290,6880,290,6720,290C6560,290,6400,290,6240,290C6080,290,5920,290,5760,290C5600,290,5440,290,5280,290C5120,290,4960,290,4800,290C4640,290,4480,290,4320,290C4160,290,4000,290,3840,290C3680,290,3520,290,3360,290C3200,290,3040,290,2880,290C2720,290,2560,290,2400,290C2240,290,2080,290,1920,290C1760,290,1600,290,1440,290C1280,290,1120,290,960,290C800,290,640,290,480,290C320,290,160,290,80,290L0,290Z"/><defs><linearGradient id="sw-gradient-2" x1="0" x2="0" y1="1" y2="0"><stop stop-color="rgba(255, 255, 255, 1)" offset="0%"/><stop stop-color="rgba(242, 242, 242, 1)" offset="100%"/></linearGradient></defs><path style="transform:translate(0, 100px); opacity:0.8" fill="url(#sw-gradient-2)" d="M0,232L80,217.5C160,203,320,174,480,164.3C640,155,800,164,960,145C1120,126,1280,77,1440,72.5C1600,68,1760,106,1920,106.3C2080,106,2240,68,2400,62.8C2560,58,2720,87,2880,101.5C3040,116,3200,116,3360,130.5C3520,145,3680,174,3840,164.3C4000,155,4160,106,4320,87C4480,68,4640,77,4800,91.8C4960,106,5120,126,5280,116C5440,106,5600,68,5760,43.5C5920,19,6080,10,6240,33.8C6400,58,6560,116,6720,145C6880,174,7040,174,7200,145C7360,116,7520,58,7680,72.5C7840,87,8000,174,8160,217.5C8320,261,8480,261,8640,227.2C8800,193,8960,126,9120,116C9280,106,9440,155,9600,183.7C9760,213,9920,222,10080,193.3C10240,164,10400,97,10560,67.7C10720,39,10880,48,11040,58C11200,68,11360,77,11440,82.2L11520,87L11520,290L11440,290C11360,290,11200,290,11040,290C10880,290,10720,290,10560,290C10400,290,10240,290,10080,290C9920,290,9760,290,9600,290C9440,290,9280,290,9120,290C8960,290,8800,290,8640,290C8480,290,8320,290,8160,290C8000,290,7840,290,7680,290C7520,290,7360,290,7200,290C7040,290,6880,290,6720,290C6560,290,6400,290,6240,290C6080,290,5920,290,5760,290C5600,290,5440,290,5280,290C5120,290,4960,290,4800,290C4640,290,4480,290,4320,290C4160,290,4000,290,3840,290C3680,290,3520,290,3360,290C3200,290,3040,290,2880,290C2720,290,2560,290,2400,290C2240,290,2080,290,1920,290C1760,290,1600,290,1440,290C1280,290,1120,290,960,290C800,290,640,290,480,290C320,290,160,290,80,290L0,290Z"/></svg>