<?xml version="1.0" standalone="no"?>
<svg xmlns:xlink="http://www.w3.org/1999/xlink" id="wave" style="transform:rotate(180deg); transition: 0.3s" viewBox="0 0 1440 490" version="1.1" xmlns="http://www.w3.org/2000/svg"><defs><linearGradient id="sw-gradient-0" x1="0" x2="0" y1="1" y2="0"><stop stop-color="rgba(0, 212, 255, 1)" offset="0%"/><stop stop-color="rgba(11, 255, 255, 1)" offset="100%"/></linearGradient></defs><path style="transform:translate(0, 0px); opacity:1" fill="url(#sw-gradient-0)" d="M0,294L17.1,285.8C34.3,278,69,261,103,212.3C137.1,163,171,82,206,73.5C240,65,274,131,309,147C342.9,163,377,131,411,163.3C445.7,196,480,294,514,351.2C548.6,408,583,425,617,400.2C651.4,376,686,310,720,277.7C754.3,245,789,245,823,261.3C857.1,278,891,310,926,334.8C960,359,994,376,1029,392C1062.9,408,1097,425,1131,375.7C1165.7,327,1200,212,1234,171.5C1268.6,131,1303,163,1337,204.2C1371.4,245,1406,294,1440,294C1474.3,294,1509,245,1543,236.8C1577.1,229,1611,261,1646,294C1680,327,1714,359,1749,367.5C1782.9,376,1817,359,1851,326.7C1885.7,294,1920,245,1954,245C1988.6,245,2023,294,2057,277.7C2091.4,261,2126,180,2160,155.2C2194.3,131,2229,163,2263,171.5C2297.1,180,2331,163,2366,138.8C2400,114,2434,82,2451,65.3L2468.6,49L2468.6,490L2451.4,490C2434.3,490,2400,490,2366,490C2331.4,490,2297,490,2263,490C2228.6,490,2194,490,2160,490C2125.7,490,2091,490,2057,490C2022.9,490,1989,490,1954,490C1920,490,1886,490,1851,490C1817.1,490,1783,490,1749,490C1714.3,490,1680,490,1646,490C1611.4,490,1577,490,1543,490C1508.6,490,1474,490,1440,490C1405.7,490,1371,490,1337,490C1302.9,490,1269,490,1234,490C1200,490,1166,490,1131,490C1097.1,490,1063,490,1029,490C994.3,490,960,490,926,490C891.4,490,857,490,823,490C788.6,490,754,490,720,490C685.7,490,651,490,617,490C582.9,490,549,490,514,490C480,490,446,490,411,490C377.1,490,343,490,309,490C274.3,490,240,490,206,490C171.4,490,137,490,103,490C68.6,490,34,490,17,490L0,490Z"/></svg>