<?xml version="1.0" standalone="no"?>
<svg xmlns:xlink="http://www.w3.org/1999/xlink" id="wave" style="transform:rotate(0deg); transition: 0.3s" viewBox="0 0 1440 100" version="1.1" xmlns="http://www.w3.org/2000/svg"><defs><linearGradient id="sw-gradient-0" x1="0" x2="0" y1="1" y2="0"><stop stop-color="rgba(38, 63, 244, 1)" offset="0%"/><stop stop-color="rgba(149, 165, 255, 1)" offset="100%"/></linearGradient></defs><path style="transform:translate(0, 0px); opacity:1" fill="url(#sw-gradient-0)" d="M0,30L17.1,30C34.3,30,69,30,103,25C137.1,20,171,10,206,11.7C240,13,274,27,309,40C342.9,53,377,67,411,65C445.7,63,480,47,514,41.7C548.6,37,583,43,617,40C651.4,37,686,23,720,25C754.3,27,789,43,823,46.7C857.1,50,891,40,926,33.3C960,27,994,23,1029,28.3C1062.9,33,1097,47,1131,51.7C1165.7,57,1200,53,1234,45C1268.6,37,1303,23,1337,18.3C1371.4,13,1406,17,1440,20C1474.3,23,1509,27,1543,38.3C1577.1,50,1611,70,1646,70C1680,70,1714,50,1749,48.3C1782.9,47,1817,63,1851,61.7C1885.7,60,1920,40,1954,36.7C1988.6,33,2023,47,2057,50C2091.4,53,2126,47,2160,45C2194.3,43,2229,47,2263,50C2297.1,53,2331,57,2366,51.7C2400,47,2434,33,2451,26.7L2468.6,20L2468.6,100L2451.4,100C2434.3,100,2400,100,2366,100C2331.4,100,2297,100,2263,100C2228.6,100,2194,100,2160,100C2125.7,100,2091,100,2057,100C2022.9,100,1989,100,1954,100C1920,100,1886,100,1851,100C1817.1,100,1783,100,1749,100C1714.3,100,1680,100,1646,100C1611.4,100,1577,100,1543,100C1508.6,100,1474,100,1440,100C1405.7,100,1371,100,1337,100C1302.9,100,1269,100,1234,100C1200,100,1166,100,1131,100C1097.1,100,1063,100,1029,100C994.3,100,960,100,926,100C891.4,100,857,100,823,100C788.6,100,754,100,720,100C685.7,100,651,100,617,100C582.9,100,549,100,514,100C480,100,446,100,411,100C377.1,100,343,100,309,100C274.3,100,240,100,206,100C171.4,100,137,100,103,100C68.6,100,34,100,17,100L0,100Z"/></svg>