<?xml version="1.0" standalone="no"?>
<svg xmlns:xlink="http://www.w3.org/1999/xlink" id="wave" style="transform:rotate(0deg); transition: 0.3s" viewBox="0 0 1440 200" version="1.1" xmlns="http://www.w3.org/2000/svg"><defs><linearGradient id="sw-gradient-0" x1="0" x2="0" y1="1" y2="0"><stop stop-color="rgba(38, 63, 244, 1)" offset="0%"/><stop stop-color="rgba(149, 165, 255, 1)" offset="100%"/></linearGradient></defs><path style="transform:translate(0, 0px); opacity:1" fill="url(#sw-gradient-0)" d="M0,60L17.1,60C34.3,60,69,60,103,50C137.1,40,171,20,206,23.3C240,27,274,53,309,80C342.9,107,377,133,411,130C445.7,127,480,93,514,83.3C548.6,73,583,87,617,80C651.4,73,686,47,720,50C754.3,53,789,87,823,93.3C857.1,100,891,80,926,66.7C960,53,994,47,1029,56.7C1062.9,67,1097,93,1131,103.3C1165.7,113,1200,107,1234,90C1268.6,73,1303,47,1337,36.7C1371.4,27,1406,33,1440,40C1474.3,47,1509,53,1543,76.7C1577.1,100,1611,140,1646,140C1680,140,1714,100,1749,96.7C1782.9,93,1817,127,1851,123.3C1885.7,120,1920,80,1954,73.3C1988.6,67,2023,93,2057,100C2091.4,107,2126,93,2160,90C2194.3,87,2229,93,2263,100C2297.1,107,2331,113,2366,103.3C2400,93,2434,67,2451,53.3L2468.6,40L2468.6,200L2451.4,200C2434.3,200,2400,200,2366,200C2331.4,200,2297,200,2263,200C2228.6,200,2194,200,2160,200C2125.7,200,2091,200,2057,200C2022.9,200,1989,200,1954,200C1920,200,1886,200,1851,200C1817.1,200,1783,200,1749,200C1714.3,200,1680,200,1646,200C1611.4,200,1577,200,1543,200C1508.6,200,1474,200,1440,200C1405.7,200,1371,200,1337,200C1302.9,200,1269,200,1234,200C1200,200,1166,200,1131,200C1097.1,200,1063,200,1029,200C994.3,200,960,200,926,200C891.4,200,857,200,823,200C788.6,200,754,200,720,200C685.7,200,651,200,617,200C582.9,200,549,200,514,200C480,200,446,200,411,200C377.1,200,343,200,309,200C274.3,200,240,200,206,200C171.4,200,137,200,103,200C68.6,200,34,200,17,200L0,200Z"/></svg>